<svg xmlns="http://www.w3.org/2000/svg" xmlns:xlink="http://www.w3.org/1999/xlink" width="1000" height="1000" viewBox="0 0 1000 1000">
  <defs>
    <linearGradient id="linear-gradient" x1="1" y1="0.138" x2="-0.226" y2="0.468" gradientUnits="objectBoundingBox">
      <stop offset="0" stop-color="#73ecba"/>
      <stop offset="0.493" stop-color="#2f7d5d"/>
      <stop offset="0.69" stop-color="#033621"/>
      <stop offset="1" stop-color="#24a873"/>
    </linearGradient>
    <clipPath id="clip-Overview">
      <rect width="1000" height="1000"/>
    </clipPath>
  </defs>
  <g id="Overview" clip-path="url(#clip-Overview)">
    <g id="Hardware_Layer" data-name="Hardware Layer" transform="translate(-90 -76)">
      <path id="Subtraction_4" data-name="Subtraction 4" d="M604,1076a508.051,508.051,0,0,1-51.123-2.581,501.1,501.1,0,0,1-49.645-7.577c-16.1-3.295-32.225-7.44-47.918-12.32-15.514-4.826-30.97-10.483-45.938-16.814-14.832-6.273-29.536-13.357-43.707-21.055-14.066-7.641-27.936-16.067-41.225-25.045-13.223-8.933-26.173-18.618-38.491-28.784-12.294-10.146-24.241-21-35.508-32.27s-22.126-23.216-32.27-35.507c-10.168-12.321-19.853-25.272-28.784-38.492-8.978-13.29-17.4-27.16-25.045-41.225-7.694-14.162-14.778-28.867-21.055-43.707-6.333-14.974-11.99-30.429-16.814-45.938-4.88-15.69-9.025-31.812-12.32-47.918a501.122,501.122,0,0,1-7.577-49.645c-.873-8.6-1.534-17.389-1.964-26.122h124.2c.294,4.483.671,9.006,1.122,13.443A375.811,375.811,0,0,0,528.224,944.361c10.791,2.208,21.847,3.963,32.862,5.217L604,1012l42.915-62.421c11.012-1.253,22.068-3.009,32.861-5.217a373.912,373.912,0,0,0,134.449-56.576A377.106,377.106,0,0,0,950.453,722.356,373.863,373.863,0,0,0,978.06,614.443c.45-4.431.827-8.954,1.121-13.443h124.2c-.431,8.741-1.092,17.529-1.965,26.122a501.384,501.384,0,0,1-7.576,49.645c-3.3,16.109-7.442,32.231-12.321,47.918-4.827,15.517-10.483,30.972-16.814,45.938-6.273,14.833-13.357,29.538-21.055,43.707-7.646,14.074-16.072,27.944-25.045,41.225-8.928,13.217-18.612,26.167-28.783,38.492-10.144,12.291-21,24.237-32.271,35.507s-23.216,22.127-35.507,32.27c-12.316,10.164-25.266,19.849-38.492,28.784-13.284,8.975-27.154,17.4-41.224,25.045-14.174,7.7-28.879,14.783-43.708,21.055-14.967,6.33-30.422,11.987-45.937,16.814-15.691,4.88-31.813,9.025-47.918,12.32a501.1,501.1,0,0,1-49.645,7.577A508.044,508.044,0,0,1,604,1076ZM228.819,551h-124.2c.43-8.738,1.092-17.527,1.964-26.122a501.032,501.032,0,0,1,7.577-49.645c3.3-16.106,7.44-32.228,12.32-47.918,4.824-15.507,10.48-30.963,16.814-45.938,6.277-14.838,13.36-29.543,21.055-43.708,7.641-14.066,16.068-27.936,25.045-41.225,8.934-13.225,18.619-26.175,28.784-38.492,10.139-12.286,21-24.232,32.27-35.507s23.219-22.13,35.508-32.27c12.319-10.167,25.269-19.851,38.491-28.784,13.289-8.978,27.159-17.4,41.225-25.045,14.171-7.7,28.876-14.782,43.707-21.054,14.965-6.33,30.421-11.987,45.938-16.814C471,93.6,487.124,89.454,503.233,86.158a501.428,501.428,0,0,1,49.645-7.576,507.364,507.364,0,0,1,102.245,0,501.43,501.43,0,0,1,49.645,7.576c16.108,3.3,32.23,7.442,47.918,12.321,15.521,4.828,30.976,10.485,45.937,16.814,14.83,6.272,29.535,13.356,43.708,21.054,14.071,7.644,27.941,16.071,41.224,25.045,13.221,8.932,26.172,18.616,38.492,28.784,12.285,10.137,24.231,20.994,35.507,32.27s22.132,23.22,32.271,35.507c10.17,12.324,19.854,25.275,28.783,38.492,8.972,13.28,17.4,27.15,25.045,41.225,7.7,14.173,14.783,28.878,21.055,43.708,6.33,14.966,11.987,30.422,16.814,45.938,4.879,15.687,9.024,31.809,12.321,47.918a501.3,501.3,0,0,1,7.576,49.645c.873,8.6,1.534,17.391,1.965,26.122h-124.2c-.238-3.63-.531-7.3-.872-10.905-1.108-11.691-2.782-23.45-4.974-34.949A373.654,373.654,0,0,0,923.69,377.981,377.619,377.619,0,0,0,776.875,242.014,373.521,373.521,0,0,0,645.1,202.221L604,262,562.9,202.22a374.449,374.449,0,0,0-188.725,76.174A376.739,376.739,0,0,0,253.846,438.73a374.273,374.273,0,0,0-19.179,66.416c-2.193,11.5-3.867,23.256-4.974,34.949-.341,3.6-.635,7.265-.873,10.905Z" transform="translate(-14 0)" fill="#d6ede4"/>
      <path id="Icon_awesome-plane" data-name="Icon awesome-plane" d="M46.875,18.75H35.714L25.45.787A1.564,1.564,0,0,0,24.093,0H17.7a1.562,1.562,0,0,0-1.5,1.991L20.982,18.75H10.937L6.719,13.125a1.563,1.563,0,0,0-1.25-.625H1.563A1.562,1.562,0,0,0,.048,14.441L3.125,25,.048,35.559A1.562,1.562,0,0,0,1.563,37.5H5.469a1.561,1.561,0,0,0,1.25-.625l4.219-5.625H20.982L16.194,48.008A1.563,1.563,0,0,0,17.7,50h6.4a1.563,1.563,0,0,0,1.356-.787L35.714,31.25H46.875c3.452,0,9.375-2.8,9.375-6.25S50.327,18.75,46.875,18.75Z" transform="matrix(0.985, -0.174, 0.174, 0.985, 184.5, 326.482)" fill="#5b5b62"/>
      <path id="Icon_metro-satellite" data-name="Icon metro-satellite" d="M2.572,34.728l16.319,16.32s3.9-9.248-1.587-14.731C11.881,30.893,2.572,34.728,2.572,34.728Zm43.777,1.3-8.288,8.288L39.1,45.349l8.288-8.288-1.036-1.036ZM50.493,38.1,41.169,28.77a2.935,2.935,0,0,0-4.144,0l-.818.818L33.922,27.3l4.1-4.1a3.093,3.093,0,0,0-.129-4.274L32.84,13.877a2.93,2.93,0,0,0-4.144,0l-3.726,3.6L23.006,15.51l.133-.132a2.932,2.932,0,0,0,0-4.145L13.814,1.906a2.932,2.932,0,0,0-4.145,0L3.453,8.123a2.932,2.932,0,0,0,0,4.145l9.325,9.325a2.932,2.932,0,0,0,4.145,0l2.038-2.038,2.019,2.037-3.75,3.75c-1.144,1.144-.712,7.514-.712,7.514l2.525,2.525s6.368.432,7.513-.712L29.8,31.426l2.286,2.286-1.281,1.281a2.93,2.93,0,0,0,0,4.144l9.327,9.324a2.93,2.93,0,0,0,4.144,0l6.216-6.216a2.935,2.935,0,0,0,0-4.148Zm-46-28.938,6.217-6.217a1.464,1.464,0,0,1,2.072,0L4.489,11.231A1.464,1.464,0,0,1,4.489,9.159Zm1.036,3.108,8.289-8.289L14.85,5.014,6.561,13.3,5.525,12.267ZM7.6,14.339,15.886,6.05l1.036,1.037L8.634,15.375,7.6,14.339ZM9.67,16.413l8.288-8.289L19,9.159l-8.289,8.289L9.67,16.413Zm2.072,2.072L20.032,10.2l1.036,1.036-8.289,8.289-1.036-1.036Zm4.144,2.072a1.464,1.464,0,0,1-2.072,0L22.1,12.267a1.464,1.464,0,0,1,0,2.072Zm4.135,7.775-.777-.778L29.956,16.842l.778.777Zm11.821,7.693,6.219-6.219a1.469,1.469,0,0,1,2.072,0L31.842,38.1a1.464,1.464,0,0,1,0-2.072ZM49.457,41.2l-6.216,6.216a1.464,1.464,0,0,1-2.072,0L34.952,41.2l8.288-8.288L42.2,31.879l-8.291,8.288-1.036-1.036,8.291-8.291,8.288,8.291a1.464,1.464,0,0,1,0,2.073ZM48.421,38.1l-8.288,8.288,1.036,1.036,8.288-8.288Zm-4.144-4.144-8.288,8.288,1.036,1.036,8.288-8.288-1.036-1.036Z" transform="translate(950.47 349.675)" fill="#5b5b62"/>
      <path id="Icon_material-laptop" data-name="Icon material-laptop" d="M62.5,49.75a6.268,6.268,0,0,0,6.25-6.25V12.25A6.268,6.268,0,0,0,62.5,6h-50a6.268,6.268,0,0,0-6.25,6.25V43.5a6.268,6.268,0,0,0,6.25,6.25H0V56H75V49.75Zm-50-37.5h50V43.5h-50Z" transform="translate(258.539 872.833)" fill="#5b5b62"/>
      <path id="Icon_material-smartphone" data-name="Icon material-smartphone" d="M34.773,1.523,12.045,1.5A4.559,4.559,0,0,0,7.5,6.045V46.955A4.559,4.559,0,0,0,12.045,51.5H34.773a4.559,4.559,0,0,0,4.545-4.545V6.045a4.539,4.539,0,0,0-4.545-4.523Zm0,40.886H12.045V10.591H34.773Z" transform="translate(872.113 863)" fill="#5b5b62"/>
    </g>
    <g id="Software_layer" data-name="Software layer">
      <path id="Subtraction_5" data-name="Subtraction 5" d="M514,714a362.661,362.661,0,0,1-36.5-1.843A356.467,356.467,0,0,1,158.843,393.5c-.385-3.8-.715-7.668-.98-11.5h191c.433,2.89.949,5.8,1.533,8.657a166.09,166.09,0,0,0,25.128,59.714A167.488,167.488,0,0,0,449,510.876a166.536,166.536,0,0,0,21.967,7.524L514,581l43.037-62.6a166.955,166.955,0,0,0,120.57-127.743c.583-2.847,1.1-5.76,1.533-8.657h191c-.266,3.848-.6,7.717-.98,11.5A356.464,356.464,0,0,1,550.5,712.156,362.664,362.664,0,0,1,514,714ZM348.857,332H157.863c.265-3.846.6-7.715.979-11.5A356.826,356.826,0,0,1,442.052,7.253c9.527-1.95,19.29-3.53,29.017-4.7L514,65,556.931,2.555c9.731,1.168,19.494,2.748,29.018,4.7A355.027,355.027,0,0,1,713.6,60.97,358.038,358.038,0,0,1,842.945,218.039,354.874,354.874,0,0,1,869.156,320.5c.385,3.793.715,7.663.98,11.5H679.144a166.467,166.467,0,0,0-35.375-80.119,167.915,167.915,0,0,0-41.342-36.572,165.692,165.692,0,0,0-51.873-21.3L510,253l-39.4-57.306A166.865,166.865,0,0,0,348.857,332ZM540.88,1H487.094C496.025.336,505.077,0,514,0s17.967.336,26.88,1Z" transform="translate(-14 143)" fill="#b4f0d7"/>
      <path id="Icon_awesome-map" data-name="Icon awesome-map" d="M0,13.686V43.748a1.389,1.389,0,0,0,1.9,1.29l11.984-5.455V6.25L1.747,11.107A2.778,2.778,0,0,0,0,13.686Zm16.667,25.9,16.667,5.556V11.806L16.667,6.25ZM48.1,6.351,36.111,11.806V45.139l12.142-4.857A2.777,2.777,0,0,0,50,37.7V7.641A1.389,1.389,0,0,0,48.1,6.351Z" transform="translate(211.667 588.167)" fill="#5b5b62"/>
      <path id="Icon_awesome-chart-bar" data-name="Icon awesome-chart-bar" d="M32.5,37.5h3.75a1.344,1.344,0,0,0,1.25-1.25V23.125a1.344,1.344,0,0,0-1.25-1.25H32.5a1.344,1.344,0,0,0-1.25,1.25V36.25A1.344,1.344,0,0,0,32.5,37.5Zm9.375,0h3.75a1.344,1.344,0,0,0,1.25-1.25V13.75a1.344,1.344,0,0,0-1.25-1.25h-3.75a1.344,1.344,0,0,0-1.25,1.25v22.5A1.344,1.344,0,0,0,41.875,37.5Zm-28.125,0H17.5a1.344,1.344,0,0,0,1.25-1.25V29.375a1.344,1.344,0,0,0-1.25-1.25H13.75a1.344,1.344,0,0,0-1.25,1.25V36.25A1.344,1.344,0,0,0,13.75,37.5Zm9.375,0h3.75a1.344,1.344,0,0,0,1.25-1.25V16.875a1.344,1.344,0,0,0-1.25-1.25h-3.75a1.344,1.344,0,0,0-1.25,1.25V36.25A1.344,1.344,0,0,0,23.125,37.5Zm25.313,6.25H6.25V14.063A1.562,1.562,0,0,0,4.688,12.5H1.563A1.562,1.562,0,0,0,0,14.063V46.875A3.125,3.125,0,0,0,3.125,50H48.438A1.562,1.562,0,0,0,50,48.438V45.313A1.562,1.562,0,0,0,48.438,43.75Z" transform="translate(362.667 729.083)" fill="#5b5b62"/>
      <path id="Icon_awesome-list-ol" data-name="Icon awesome-list-ol" d="M6.032,42.285l1.709-1.968a1.945,1.945,0,0,0,.5-1.386v-.323A.99.99,0,0,0,7.129,37.5H1.563a.781.781,0,0,0-.781.781v1.563a.781.781,0,0,0,.781.781H3.792a15.372,15.372,0,0,0-1.074,1.2l-.548.684A1.3,1.3,0,0,0,1.9,43.964l.1.188a1.189,1.189,0,0,0,1.2.77h.462c1.009,0,1.557.238,1.557.888,0,.461-.41.8-1.4.8a4.057,4.057,0,0,1-1.511-.3c-.634-.379-1.146-.342-1.523.3l-.546.909a1.052,1.052,0,0,0,.257,1.557A7.012,7.012,0,0,0,4.1,50c3.336,0,4.736-2.222,4.736-4.309A3.531,3.531,0,0,0,6.032,42.285ZM48.438,25H17.188a1.563,1.563,0,0,0-1.562,1.563v3.125a1.562,1.562,0,0,0,1.563,1.563h31.25A1.562,1.562,0,0,0,50,29.688V26.563A1.563,1.563,0,0,0,48.438,25Zm0-15.625H17.188a1.563,1.563,0,0,0-1.562,1.563v3.125a1.562,1.562,0,0,0,1.563,1.563h31.25A1.562,1.562,0,0,0,50,14.063V10.938A1.562,1.562,0,0,0,48.438,9.375Zm0,31.25H17.188a1.562,1.562,0,0,0-1.562,1.563v3.125a1.562,1.562,0,0,0,1.563,1.563h31.25A1.562,1.562,0,0,0,50,45.313V42.188A1.562,1.562,0,0,0,48.438,40.625ZM1.563,18.75h6.25a.781.781,0,0,0,.781-.781V16.406a.781.781,0,0,0-.781-.781H6.25V7.031a.781.781,0,0,0-.781-.781H3.125a.781.781,0,0,0-.7.432L1.646,8.244a.781.781,0,0,0,.7,1.131h.781v6.25H1.563a.781.781,0,0,0-.781.781v1.563a.781.781,0,0,0,.781.781ZM1.181,34.375H7.813a.781.781,0,0,0,.781-.781V32.031a.781.781,0,0,0-.781-.781H4.035c.321-1,4.721-1.824,4.721-5.512,0-2.838-2.441-3.863-4.343-3.863A4.735,4.735,0,0,0,.462,23.706a.965.965,0,0,0,.273,1.5l.838.672c.548.445,1.074.241,1.574-.238a1.313,1.313,0,0,1,.924-.375.832.832,0,0,1,.906.854C4.98,27.362,0,28.253,0,32.87v.391A1.069,1.069,0,0,0,1.181,34.375Z" transform="translate(648.667 700.458)" fill="#5b5b62"/>
      <g id="Icon_feather-more-horizontal" data-name="Icon feather-more-horizontal" transform="translate(755.4 575)">
        <path id="Path_4" data-name="Path 4" d="M27.083,25A2.083,2.083,0,1,1,25,22.917,2.083,2.083,0,0,1,27.083,25Z" fill="none" stroke="#5b5b62" stroke-linecap="round" stroke-linejoin="round" stroke-width="4.167"/>
        <path id="Path_5" data-name="Path 5" d="M41.667,25a2.083,2.083,0,1,1-2.083-2.083A2.083,2.083,0,0,1,41.667,25Z" fill="none" stroke="#5b5b62" stroke-linecap="round" stroke-linejoin="round" stroke-width="4.167"/>
        <path id="Path_6" data-name="Path 6" d="M12.5,25a2.083,2.083,0,1,1-2.083-2.083A2.083,2.083,0,0,1,12.5,25Z" fill="none" stroke="#5b5b62" stroke-linecap="round" stroke-linejoin="round" stroke-width="4.167"/>
      </g>
      <path id="Polygon_7" data-name="Polygon 7" d="M44,0,88,64H0Z" transform="translate(544 913) rotate(180)" fill="#b4f0d7"/>
    </g>
    <g id="Group_1" data-name="Group 1" transform="translate(129.913 -8.196)">
      <path id="Subtraction_2" data-name="Subtraction 2" d="M522.177,347h0l-.753-.416-30.78-55.531,81.822-147.615,47.844,26.52Z" transform="translate(-151.411 294.051)" fill="url(#linear-gradient)"/>
      <path id="Subtraction_1" data-name="Subtraction 1" d="M430.737,343.962h0L331.506,164.943l49.841-27.627L463.315,285.19Z" transform="translate(-60.232 297.557)" fill="#73ecba"/>
    </g>
    <path id="Icon_awesome-brain" data-name="Icon awesome-brain" d="M20.313,0a6.232,6.232,0,0,0-6.035,4.707c-.078,0-.137-.02-.215-.02a6.256,6.256,0,0,0-6.25,6.25A5.759,5.759,0,0,0,7.979,12.3,7.745,7.745,0,0,0,3.936,22.939,7.784,7.784,0,0,0,4.824,36.9a7.156,7.156,0,0,0-.137,1.377,7.027,7.027,0,0,0,7.031,7.031,6.621,6.621,0,0,0,1.172-.117,7.015,7.015,0,0,0,13.672-2.227V6.25A6.256,6.256,0,0,0,20.313,0ZM56.25,29.688a7.772,7.772,0,0,0-3.936-6.748,7.686,7.686,0,0,0,.811-3.408A7.812,7.812,0,0,0,48.271,12.3a6.192,6.192,0,0,0-6.084-7.617c-.078,0-.146.02-.215.02A6.238,6.238,0,0,0,29.688,6.25V42.969A7.015,7.015,0,0,0,43.359,45.2a6.621,6.621,0,0,0,1.172.117,7.027,7.027,0,0,0,7.031-7.031,7.156,7.156,0,0,0-.137-1.377A7.813,7.813,0,0,0,56.25,29.688Z" transform="translate(471.875 220.175)" fill="#5b5b62"/>
    <g id="Kluppe" transform="translate(549.392 -332.199) rotate(21)">
      <rect id="Rectangle_1" data-name="Rectangle 1" width="102.174" height="10.404" rx="5" transform="translate(289 344)" fill="#5b5b62"/>
      <path id="Path_1" data-name="Path 1" d="M0,0,10.129,41.318H0Z" transform="translate(299.129 394) rotate(180)" fill="#5b5b62"/>
      <path id="Path_2" data-name="Path 2" d="M10.129,0,0,41.318H10.129Z" transform="translate(327.825 394) rotate(180)" fill="#5b5b62"/>
    </g>
    <path id="Icon_awesome-camera" data-name="Icon awesome-camera" d="M50,14.063V42.188a4.689,4.689,0,0,1-4.687,4.688H4.688A4.689,4.689,0,0,1,0,42.188V14.063A4.689,4.689,0,0,1,4.688,9.375h8.594l1.2-3.213a4.681,4.681,0,0,1,4.385-3.037H31.123a4.681,4.681,0,0,1,4.385,3.037l1.211,3.213h8.594A4.689,4.689,0,0,1,50,14.063ZM36.719,28.125A11.719,11.719,0,1,0,25,39.844,11.728,11.728,0,0,0,36.719,28.125Zm-3.125,0A8.594,8.594,0,1,1,25,19.531,8.606,8.606,0,0,1,33.594,28.125Z" transform="translate(272 87.293)" fill="#5b5b62"/>
  </g>
</svg>
